<?xml version="1.0" ?>
<svg height="36" id="icon" viewBox="0 0 64 64" width="28" xmlns="http://www.w3.org/2000/svg">
    <g data-name="12-setting" id="_12-setting">
        <path
            d="M63.242,13.03l-3.914-.979a11.8,11.8,0,0,0-.523-1.273l2.073-3.456a1,1,0,0,0-.15-1.221L57.9,3.272a1,1,0,0,0-1.221-.15L53.222,5.2a12.057,12.057,0,0,0-1.274-.523L50.97.757A1,1,0,0,0,50,0H46a1,1,0,0,0-.97.757l-.978,3.915a12.057,12.057,0,0,0-1.274.523L39.322,3.122a1,1,0,0,0-1.221.15L35.272,6.1a1,1,0,0,0-.15,1.221L37.2,10.778a11.8,11.8,0,0,0-.523,1.273l-3.914.979A1,1,0,0,0,32,14v4a1,1,0,0,0,2,0V14.781l3.7-.924a1,1,0,0,0,.717-.688,9.989,9.989,0,0,1,.8-1.951,1,1,0,0,0-.021-.993L37.238,6.962l1.725-1.724L42.225,7.2a1,1,0,0,0,.993.02,10,10,0,0,1,1.952-.8,1,1,0,0,0,.686-.716L46.781,2h2.438l.925,3.7a1,1,0,0,0,.686.716,10,10,0,0,1,1.952.8,1,1,0,0,0,.993-.02l3.262-1.958,1.725,1.724-1.957,3.263a1,1,0,0,0-.021.993,9.989,9.989,0,0,1,.8,1.951,1,1,0,0,0,.717.688l3.7.924v2.438l-3.7.924a1,1,0,0,0-.717.688,9.989,9.989,0,0,1-.8,1.951,1,1,0,0,0,.021.993l1.957,3.263-1.725,1.724L53.775,24.8a1,1,0,0,0-.993-.02,10,10,0,0,1-1.952.8,1,1,0,0,0-.686.716L49.219,30H46a1,1,0,0,0,0,2h4a1,1,0,0,0,.97-.757l.978-3.915a12.057,12.057,0,0,0,1.274-.523l3.456,2.073a1,1,0,0,0,1.221-.15L60.728,25.9a1,1,0,0,0,.15-1.221l-2.073-3.456a11.8,11.8,0,0,0,.523-1.273l3.914-.979A1,1,0,0,0,64,18V14A1,1,0,0,0,63.242,13.03Z"
            fill="white" />
        <path d="M48,24a8,8,0,1,0-8-8,1,1,0,0,0,2,0,6,6,0,1,1,6,6,1,1,0,0,0,0,2Z" fill="white" />
        <path d="M52,16a4,4,0,1,0-4,4A4,4,0,0,0,52,16Zm-6,0a2,2,0,1,1,2,2A2,2,0,0,1,46,16Z" fill="white" />
        <path
            d="M49.083,33l-6.242-.52c-.183-.495-.39-.992-.621-1.486l4.05-4.786a1,1,0,0,0-.057-1.353l-7.07-7.071a1,1,0,0,0-1.353-.056L33,21.781q-.74-.346-1.486-.622L31,14.917A1,1,0,0,0,30,14H20a1,1,0,0,0-1,.917l-.521,6.242q-.745.274-1.486.622l-4.787-4.05a1,1,0,0,0-1.353.056l-7.07,7.071a1,1,0,0,0-.057,1.353L7.78,31c-.231.494-.438.991-.621,1.486L.917,33A1,1,0,0,0,0,34V44a1,1,0,0,0,.917,1l6.242.52c.183.495.39.992.621,1.486L3.73,51.789a1,1,0,0,0,.057,1.353l7.07,7.071a1,1,0,0,0,1.353.056L17,56.219q.739.346,1.486.622L19,63.083A1,1,0,0,0,20,64H30a1,1,0,0,0,1-.917l.521-6.242q.746-.274,1.486-.622l4.787,4.05a1,1,0,0,0,1.353-.056l7.07-7.071a1,1,0,0,0,.057-1.353L42.22,47c.231-.494.438-.991.621-1.486L49.083,45A1,1,0,0,0,50,44V34A1,1,0,0,0,49.083,33ZM48,43.08l-5.974.5a1,1,0,0,0-.868.687A16.886,16.886,0,0,1,40.144,46.7a1,1,0,0,0,.127,1.1l3.877,4.582-5.769,5.77L33.8,54.271a1,1,0,0,0-1.1-.127,17.017,17.017,0,0,1-2.431,1.015,1,1,0,0,0-.687.868L29.08,62H20.92l-.5-5.973a1,1,0,0,0-.687-.868A17.017,17.017,0,0,1,17.3,54.144a1,1,0,0,0-1.1.127l-4.583,3.877-5.769-5.77L9.729,47.8a1,1,0,0,0,.127-1.1,16.886,16.886,0,0,1,1.014-2.431,1,1,0,0,0,.868-.687L2,43.08V34.92l5.974-.5a1,1,0,0,0,.868-.687A16.886,16.886,0,0,1,9.856,31.3a1,1,0,0,0-.127-1.1L5.852,25.622l5.769-5.77L16.2,23.729a1,1,0,0,0,1.1.127,17.017,17.017,0,0,1,2.431-1.015,1,1,0,0,0,.687-.868L20.92,16h8.16l.5,5.973a1,1,0,0,0,.687.868A17.017,17.017,0,0,1,32.7,23.856a.992.992,0,0,0,1.1-.127l4.583-3.877,5.769,5.77L40.271,30.2a1,1,0,0,0-.127,1.1,16.886,16.886,0,0,1,1.014,2.431,1,1,0,0,0,.868.687l5.974.5Z"
            fill="white" />
        <path
            d="M25,24A15,15,0,1,0,40,39,15.017,15.017,0,0,0,25,24Zm0,28A13,13,0,1,1,38,39,13.015,13.015,0,0,1,25,52Z"
            fill="white" />
        <path d="M25,30a9,9,0,1,0,9,9A9.01,9.01,0,0,0,25,30Zm0,16a7,7,0,1,1,7-7A7.008,7.008,0,0,1,25,46Z"
            fill="white" />
    </g>
</svg>
